<?xml version="1.0" encoding="UTF-8"?>
<svg id="Capa_1" xmlns="http://www.w3.org/2000/svg" version="1.1" viewBox="0 0 127.76 1206.04">
  <!-- Generator: Adobe Illustrator 29.6.1, SVG Export Plug-In . SVG Version: 2.1.1 Build 9)  -->
  <defs>
    <style>
      .st0 {
        fill: #fff;
      }

      .st1 {
        fill: #e41d1e;
      }
    </style>
  </defs>
  <rect class="st0" x="-538.64" y="539.89" width="1205.19" height="127.15" transform="translate(-539.49 667.65) rotate(-90.02)"/>
  <rect class="st1" x=".68" y="1142.53" width="64.07" height="63.53"/>
  <rect class="st1" x=".46" y="760.9" width="64.07" height="63.53"/>
  <rect class="st1" x="64.58" y="824.38" width="63.07" height="63.53"/>
  <rect class="st1" x=".56" y="887.95" width="64.07" height="63.53"/>
  <rect class="st1" x="64.68" y="951.43" width="63.07" height="63.53"/>
  <path class="st0" d="M6.27,926.31c-.41-.48-.54-.9-.49-1.37.08-.69.03-1.44.27-2.07.35-.91.29-1.96.95-2.77.19-.24.09-.54-.05-.84-.72-1.59-1.16-3.26-1.13-5.02,0-.15.02-.3.06-.44.04-.14.11-.27.19-.45.16-.05.35-.17.53-.17.69.02,1.25-.25,1.76-.67.36-.3.74-.52,1.21-.47,1.24.14,2.32-.44,3.42-.83,1.77-.63,3.35-1.65,4.93-2.66,1.82-1.17,3.56-2.46,5.46-3.51.47-.26.97-.52,1.48-.68,1.55-.5,3.03-1.14,4.5-1.84.44-.21.93-.33,1.41-.45,1.24-.31,2.42-.91,3.73-.94.1,0,.21.01.29-.03,1.13-.65,2.4-.45,3.62-.58.59-.06,1.19-.02,1.72-.38.12-.08.28-.11.42-.13,1.32-.22,2.64-.4,3.94-.67.86-.18,1.75-.39,2.54-.76.93-.44,2-.63,2.72-1.46,1.5-.75,2.96-1.61,4.75-1.44,1.16.11,2.45,1.1,2.98,2.16.71,1.44,1.06,2.99,1.59,4.48.1.28.15.58.16.88.05,1.3.12,2.6.09,3.89-.04,1.69-1,2.79-2.64,3.07-.93.16-1.86.27-2.8.36-.94.1-1.87.19-2.81.22-1.46.04-2.79.47-4.1,1.09-1.02.48-2.09.91-3.17,1.24-1.04.32-2.02.77-2.96,1.31-.91.52-1.91.78-2.88,1.1-1.54.51-3.14.85-4.73,1.24-.38.09-.78.12-1.18.14-.89.05-1.76.19-2.63.41-.8.21-1.67.21-2.51.22-3.12.02-6.24,0-9.37,0-.75,0-1.48,0-2.19.32-.31.14-.67.17-1.01.21-.54.06-1.07.14-1.57.41-.46.25-1.09.1-1.47.62-.11.15-.45.16-.69.18-.39.03-.8,0-1.18.05-.15.02-.38.25-.37.36.01.15.2.35.36.41.27.1.58.11.87.14.59.07,1.18.11,1.68.5.15.12.35.19.54.24,1.63.38,3.25.79,4.96.74,2.87-.08,5.75-.06,8.62-.06,1.04,0,2.08-.05,3.07.41.3.14.68.12,1.02.14.79.05,1.58.03,2.32.43.21.11.48.11.73.13.82.09,1.62.12,2.42.53.86.43,1.89.52,2.83.77.43.12.86.25,1.26.44,1.55.75,3.18,1.32,4.75,2.02,1.75.79,3.63,1.2,5.34,2.05.29.15.67.15,1.02.16,1.09.04,2.18.11,3.27.06,1.28-.07,2.44.4,3.59.79.9.31,1.59,1.02,1.58,2.13-.02,1.55-.03,3.1-.08,4.64-.01.34-.16.67-.26,1-.07.24-.21.46-.24.7-.11,1.1-.7,2.02-1.08,3.02-.49,1.31-1.47,1.94-2.57,2.5-.29.15-.68.22-1,.17-1.58-.24-3.12-.75-4.39-1.71-1.1-.83-2.33-1.29-3.57-1.72-1.16-.4-2.35-.78-3.61-.68-.05,0-.1,0-.15-.02-1.6-.56-3.32-.5-4.95-.89-.38-.09-.78-.16-1.17-.18-.9-.04-1.74-.22-2.6-.52-.82-.29-1.7-.48-2.56-.68-.68-.16-1.31-.39-1.94-.67-1.17-.52-2.42-.84-3.5-1.57-.12-.08-.27-.18-.4-.17-.97.04-1.61-.65-2.4-1.02-1.63-.76-2.95-1.98-4.53-2.81-.94-.5-1.85-1.13-2.76-1.71-1.57-1.01-3.3-1.57-5.05-2.05-.97-.27-2-.28-2.92-.83-.35-.21-.86-.13-1.31-.19Z"/>
  <rect class="st1" x=".66" y="1015.02" width="64.07" height="63.53"/>
  <rect class="st1" x="64.78" y="1078.49" width="63.07" height="63.53"/>
  <path class="st0" d="M69.8,1116.84c-.41-.48-.54-.9-.49-1.37.08-.69.03-1.44.27-2.07.35-.91.29-1.96.95-2.77.19-.24.09-.54-.05-.84-.72-1.59-1.16-3.26-1.13-5.02,0-.15.02-.3.06-.44.04-.14.11-.27.19-.45.16-.05.35-.17.53-.17.69.02,1.25-.25,1.76-.67.36-.3.74-.52,1.21-.47,1.24.14,2.32-.44,3.42-.83,1.77-.63,3.35-1.65,4.93-2.66,1.82-1.17,3.56-2.46,5.46-3.51.47-.26.97-.52,1.48-.68,1.55-.5,3.03-1.14,4.5-1.84.44-.21.93-.33,1.41-.45,1.24-.31,2.42-.91,3.73-.94.1,0,.21.01.29-.03,1.13-.65,2.4-.45,3.62-.58.59-.06,1.19-.02,1.72-.38.12-.08.28-.11.42-.13,1.32-.22,2.64-.4,3.94-.67.86-.18,1.75-.39,2.54-.76.93-.44,2-.63,2.72-1.46,1.5-.75,2.96-1.61,4.75-1.44,1.16.11,2.45,1.1,2.98,2.16.71,1.44,1.06,2.99,1.59,4.48.1.28.15.58.16.88.05,1.3.12,2.6.09,3.89-.04,1.69-1,2.79-2.64,3.07-.93.16-1.86.27-2.8.36-.94.1-1.87.19-2.81.22-1.46.04-2.79.47-4.1,1.09-1.02.48-2.09.91-3.17,1.24-1.04.32-2.02.77-2.96,1.31-.91.52-1.91.78-2.88,1.1-1.54.51-3.14.85-4.73,1.24-.38.09-.78.12-1.18.14-.89.05-1.76.19-2.63.41-.8.21-1.67.21-2.51.22-3.12.02-6.24,0-9.37,0-.75,0-1.48,0-2.19.32-.31.14-.67.17-1.01.21-.54.06-1.07.14-1.57.41-.46.25-1.09.1-1.47.62-.11.15-.45.16-.69.18-.39.03-.8,0-1.18.05-.15.02-.38.25-.37.36.01.15.2.35.36.41.27.1.58.11.87.14.59.07,1.18.11,1.68.5.15.12.35.19.54.24,1.63.38,3.25.79,4.96.74,2.87-.08,5.75-.06,8.62-.06,1.04,0,2.08-.05,3.07.41.3.14.68.12,1.02.14.79.05,1.58.03,2.32.43.21.11.48.11.73.13.82.09,1.62.12,2.42.53.86.43,1.89.52,2.83.77.43.12.86.25,1.26.44,1.55.75,3.18,1.32,4.75,2.02,1.75.79,3.63,1.2,5.34,2.05.29.15.67.15,1.02.16,1.09.04,2.18.11,3.27.06,1.28-.07,2.44.4,3.59.79.9.31,1.59,1.02,1.58,2.13-.02,1.55-.03,3.1-.08,4.64-.01.34-.16.67-.26,1-.07.24-.21.46-.24.7-.11,1.1-.7,2.02-1.08,3.02-.49,1.31-1.47,1.94-2.57,2.5-.29.15-.68.22-1,.17-1.58-.24-3.12-.75-4.39-1.71-1.1-.83-2.33-1.29-3.57-1.72-1.16-.4-2.35-.78-3.61-.68-.05,0-.1,0-.15-.02-1.6-.56-3.32-.5-4.95-.89-.38-.09-.78-.16-1.17-.18-.9-.04-1.74-.22-2.6-.52-.82-.29-1.7-.48-2.56-.68-.68-.16-1.31-.39-1.94-.67-1.17-.52-2.42-.84-3.5-1.57-.12-.08-.27-.18-.4-.17-.97.04-1.61-.65-2.4-1.02-1.63-.76-2.95-1.98-4.53-2.81-.94-.5-1.85-1.13-2.76-1.71-1.57-1.01-3.3-1.57-5.05-2.05-.97-.27-2-.28-2.92-.83-.35-.21-.86-.13-1.31-.19Z"/>
  <rect class="st1" x=".17" y="380.69" width="64.07" height="63.53"/>
  <rect class="st1" x=".27" y="507.75" width="64.07" height="63.53"/>
  <path class="st0" d="M5.98,546.1c-.41-.48-.54-.9-.49-1.37.08-.69.03-1.44.27-2.07.35-.91.29-1.96.95-2.77.19-.24.09-.54-.05-.84-.72-1.59-1.16-3.26-1.13-5.02,0-.15.02-.3.06-.44.04-.14.11-.27.19-.45.16-.05.35-.17.53-.17.69.02,1.25-.25,1.76-.67.36-.3.74-.52,1.21-.47,1.24.14,2.32-.44,3.42-.83,1.77-.63,3.35-1.65,4.93-2.66,1.82-1.17,3.56-2.46,5.46-3.51.47-.26.97-.52,1.48-.68,1.55-.5,3.03-1.14,4.5-1.84.44-.21.93-.33,1.41-.45,1.24-.31,2.42-.91,3.73-.94.1,0,.21.01.29-.03,1.13-.65,2.4-.45,3.62-.58.59-.06,1.19-.02,1.72-.38.12-.08.28-.11.42-.13,1.32-.22,2.64-.4,3.94-.67.86-.18,1.75-.39,2.54-.76.93-.44,2-.63,2.72-1.46,1.5-.75,2.96-1.61,4.75-1.44,1.16.11,2.45,1.1,2.98,2.16.71,1.44,1.06,2.99,1.59,4.48.1.28.15.58.16.88.05,1.3.12,2.6.09,3.89-.04,1.69-1,2.79-2.64,3.07-.93.16-1.86.27-2.8.36-.94.1-1.87.19-2.81.22-1.46.04-2.79.47-4.1,1.09-1.02.48-2.09.91-3.17,1.24-1.04.32-2.02.77-2.96,1.31-.91.52-1.91.78-2.88,1.1-1.54.51-3.14.85-4.73,1.24-.38.09-.78.12-1.18.14-.89.05-1.76.19-2.63.41-.8.21-1.67.21-2.51.22-3.12.02-6.24,0-9.37,0-.75,0-1.48,0-2.19.32-.31.14-.67.17-1.01.21-.54.06-1.07.14-1.57.41-.46.25-1.09.1-1.47.62-.11.15-.45.16-.69.18-.39.03-.8,0-1.18.05-.15.02-.38.25-.37.36.01.15.2.35.36.41.27.1.58.11.87.14.59.07,1.18.11,1.68.5.15.12.35.19.54.24,1.63.38,3.25.79,4.96.74,2.87-.08,5.75-.06,8.62-.06,1.04,0,2.08-.05,3.07.41.3.14.68.12,1.02.14.79.05,1.58.03,2.32.43.21.11.48.11.73.13.82.09,1.62.12,2.42.53.86.43,1.89.52,2.83.77.43.12.86.25,1.26.44,1.55.75,3.18,1.32,4.75,2.02,1.75.79,3.63,1.2,5.34,2.05.29.15.67.15,1.02.16,1.09.04,2.18.11,3.27.06,1.28-.07,2.44.4,3.59.79.9.31,1.59,1.02,1.58,2.13-.02,1.55-.03,3.1-.08,4.64-.01.34-.16.67-.26,1-.07.24-.21.46-.24.7-.11,1.1-.7,2.02-1.08,3.02-.49,1.31-1.47,1.94-2.57,2.5-.29.15-.68.22-1,.17-1.58-.24-3.12-.75-4.39-1.71-1.1-.83-2.33-1.29-3.57-1.72-1.16-.4-2.35-.78-3.61-.68-.05,0-.1,0-.15-.02-1.6-.56-3.32-.5-4.95-.89-.38-.09-.78-.16-1.17-.18-.9-.04-1.74-.22-2.6-.52-.82-.29-1.7-.48-2.56-.68-.68-.16-1.31-.39-1.94-.67-1.17-.52-2.42-.84-3.5-1.57-.12-.08-.27-.18-.4-.17-.97.04-1.61-.65-2.4-1.02-1.63-.76-2.95-1.98-4.53-2.81-.94-.5-1.85-1.13-2.76-1.71-1.57-1.01-3.3-1.57-5.05-2.05-.97-.27-2-.28-2.92-.83-.35-.21-.86-.13-1.31-.19Z"/>
  <rect class="st1" x=".37" y="634.81" width="64.07" height="63.53"/>
  <rect class="st1" x="64.49" y="698.28" width="63.07" height="63.53"/>
  <path class="st0" d="M69.5,736.64c-.41-.48-.54-.9-.49-1.37.08-.69.03-1.44.27-2.07.35-.91.29-1.96.95-2.77.19-.24.09-.54-.05-.84-.72-1.59-1.16-3.26-1.13-5.02,0-.15.02-.3.06-.44.04-.14.11-.27.19-.45.16-.05.35-.17.53-.17.69.02,1.25-.25,1.76-.67.36-.3.74-.52,1.21-.47,1.24.14,2.32-.44,3.42-.83,1.77-.63,3.35-1.65,4.93-2.66,1.82-1.17,3.56-2.46,5.46-3.51.47-.26.97-.52,1.48-.68,1.55-.5,3.03-1.14,4.5-1.84.44-.21.93-.33,1.41-.45,1.24-.31,2.42-.91,3.73-.94.1,0,.21.01.29-.03,1.13-.65,2.4-.45,3.62-.58.59-.06,1.19-.02,1.72-.38.12-.08.28-.11.42-.13,1.32-.22,2.64-.4,3.94-.67.86-.18,1.75-.39,2.54-.76.93-.44,2-.63,2.72-1.46,1.5-.75,2.96-1.61,4.75-1.44,1.16.11,2.45,1.1,2.98,2.16.71,1.44,1.06,2.99,1.59,4.48.1.28.15.58.16.88.05,1.3.12,2.6.09,3.89-.04,1.69-1,2.79-2.64,3.07-.93.16-1.86.27-2.8.36-.94.1-1.87.19-2.81.22-1.46.04-2.79.47-4.1,1.09-1.02.48-2.09.91-3.17,1.24-1.04.32-2.02.77-2.96,1.31-.91.52-1.91.78-2.88,1.1-1.54.51-3.14.85-4.73,1.24-.38.09-.78.12-1.18.14-.89.05-1.76.19-2.63.41-.8.21-1.67.21-2.51.22-3.12.02-6.24,0-9.37,0-.75,0-1.48,0-2.19.32-.31.14-.67.17-1.01.21-.54.06-1.07.14-1.57.41-.46.25-1.09.1-1.47.62-.11.15-.45.16-.69.18-.39.03-.8,0-1.18.05-.15.02-.38.25-.37.36.01.15.2.35.36.41.27.1.58.11.87.14.59.07,1.18.11,1.68.5.15.12.35.19.54.24,1.63.38,3.25.79,4.96.74,2.87-.08,5.75-.06,8.62-.06,1.04,0,2.08-.05,3.07.41.3.14.68.12,1.02.14.79.05,1.58.03,2.32.43.21.11.48.11.73.13.82.09,1.62.12,2.42.53.86.43,1.89.52,2.83.77.43.12.86.25,1.26.44,1.55.75,3.18,1.32,4.75,2.02,1.75.79,3.63,1.2,5.34,2.05.29.15.67.15,1.02.16,1.09.04,2.18.11,3.27.06,1.28-.07,2.44.4,3.59.79.9.31,1.59,1.02,1.58,2.13-.02,1.55-.03,3.1-.08,4.64-.01.34-.16.67-.26,1-.07.24-.21.46-.24.7-.11,1.1-.7,2.02-1.08,3.02-.49,1.31-1.47,1.94-2.57,2.5-.29.15-.68.22-1,.17-1.58-.24-3.12-.75-4.39-1.71-1.1-.83-2.33-1.29-3.57-1.72-1.16-.4-2.35-.78-3.61-.68-.05,0-.1,0-.15-.02-1.6-.56-3.32-.5-4.95-.89-.38-.09-.78-.16-1.17-.18-.9-.04-1.74-.22-2.6-.52-.82-.29-1.7-.48-2.56-.68-.68-.16-1.31-.39-1.94-.67-1.17-.52-2.42-.84-3.5-1.57-.12-.08-.27-.18-.4-.17-.97.04-1.61-.65-2.4-1.02-1.63-.76-2.95-1.98-4.53-2.81-.94-.5-1.85-1.13-2.76-1.71-1.57-1.01-3.3-1.57-5.05-2.05-.97-.27-2-.28-2.92-.83-.35-.21-.86-.13-1.31-.19Z"/>
  <rect class="st1" x=".02" y=".89" width="64.07" height="63.53"/>
  <rect class="st1" x="64.15" y="64.37" width="63.07" height="63.53"/>
  <rect class="st1" x=".12" y="127.95" width="64.07" height="63.53"/>
  <rect class="st1" x="64.24" y="190.43" width="63.07" height="63.53"/>
  <path class="st0" d="M5.84,166.3c-.41-.48-.54-.9-.49-1.37.08-.69.03-1.44.27-2.07.35-.91.29-1.96.95-2.77.19-.24.09-.54-.05-.84-.72-1.59-1.16-3.26-1.13-5.02,0-.15.02-.3.06-.44.04-.14.11-.27.19-.45.16-.05.35-.17.53-.17.69.02,1.25-.25,1.76-.67.36-.3.74-.52,1.21-.47,1.24.14,2.32-.44,3.42-.83,1.77-.63,3.35-1.65,4.93-2.66,1.82-1.17,3.56-2.46,5.46-3.51.47-.26.97-.52,1.48-.68,1.55-.5,3.03-1.14,4.5-1.84.44-.21.93-.33,1.41-.45,1.24-.31,2.42-.91,3.73-.94.1,0,.21.01.29-.03,1.13-.65,2.4-.45,3.62-.58.59-.06,1.19-.02,1.72-.38.12-.08.28-.11.42-.13,1.32-.22,2.64-.4,3.94-.67.86-.18,1.75-.39,2.54-.76.93-.44,2-.63,2.72-1.46,1.5-.75,2.96-1.61,4.75-1.44,1.16.11,2.45,1.1,2.98,2.16.71,1.44,1.06,2.99,1.59,4.48.1.28.15.58.16.88.05,1.3.12,2.6.09,3.89-.04,1.69-1,2.79-2.64,3.07-.93.16-1.86.27-2.8.36-.94.1-1.87.19-2.81.22-1.46.04-2.79.47-4.1,1.09-1.02.48-2.09.91-3.17,1.24-1.04.32-2.02.77-2.96,1.31-.91.52-1.91.78-2.88,1.1-1.54.51-3.14.85-4.73,1.24-.38.09-.78.12-1.18.14-.89.05-1.76.19-2.63.41-.8.21-1.67.21-2.51.22-3.12.02-6.24,0-9.37,0-.75,0-1.48,0-2.19.32-.31.14-.67.17-1.01.21-.54.06-1.07.14-1.57.41-.46.25-1.09.1-1.47.62-.11.15-.45.16-.69.18-.39.03-.8,0-1.18.05-.15.02-.38.25-.37.36.01.15.2.35.36.41.27.1.58.11.87.14.59.07,1.18.11,1.68.5.15.12.35.19.54.24,1.63.38,3.25.79,4.96.74,2.87-.08,5.75-.06,8.62-.06,1.04,0,2.08-.05,3.07.41.3.14.68.12,1.02.14.79.05,1.58.03,2.32.43.21.11.48.11.73.13.82.09,1.62.12,2.42.53.86.43,1.89.52,2.83.77.43.12.86.25,1.26.44,1.55.75,3.18,1.32,4.75,2.02,1.75.79,3.63,1.2,5.34,2.05.29.15.67.15,1.02.16,1.09.04,2.18.11,3.27.06,1.28-.07,2.44.4,3.59.79.9.31,1.59,1.02,1.58,2.13-.02,1.55-.03,3.1-.08,4.64-.01.34-.16.67-.26,1-.07.24-.21.46-.24.7-.11,1.1-.7,2.02-1.08,3.02-.49,1.31-1.47,1.94-2.57,2.5-.29.15-.68.22-1,.17-1.58-.24-3.12-.75-4.39-1.71-1.1-.83-2.33-1.29-3.57-1.72-1.16-.4-2.35-.78-3.61-.68-.05,0-.1,0-.15-.02-1.6-.56-3.32-.5-4.95-.89-.38-.09-.78-.16-1.17-.18-.9-.04-1.74-.22-2.6-.52-.82-.29-1.7-.48-2.56-.68-.68-.16-1.31-.39-1.94-.67-1.17-.52-2.42-.84-3.5-1.57-.12-.08-.27-.18-.4-.17-.97.04-1.61-.65-2.4-1.02-1.63-.76-2.95-1.98-4.53-2.81-.94-.5-1.85-1.13-2.76-1.71-1.57-1.01-3.3-1.57-5.05-2.05-.97-.27-2-.28-2.92-.83-.35-.21-.86-.13-1.31-.19Z"/>
  <rect class="st1" x=".22" y="254.01" width="64.07" height="63.53"/>
  <rect class="st1" x="64.34" y="317.48" width="63.07" height="63.53"/>
  <path class="st0" d="M69.36,355.84c-.41-.48-.54-.9-.49-1.37.08-.69.03-1.44.27-2.07.35-.91.29-1.96.95-2.77.19-.24.09-.54-.05-.84-.72-1.59-1.16-3.26-1.13-5.02,0-.15.02-.3.06-.44.04-.14.11-.27.19-.45.16-.05.35-.17.53-.17.69.02,1.25-.25,1.76-.67.36-.3.74-.52,1.21-.47,1.24.14,2.32-.44,3.42-.83,1.77-.63,3.35-1.65,4.93-2.66,1.82-1.17,3.56-2.46,5.46-3.51.47-.26.97-.52,1.48-.68,1.55-.5,3.03-1.14,4.5-1.84.44-.21.93-.33,1.41-.45,1.24-.31,2.42-.91,3.73-.94.1,0,.21.01.29-.03,1.13-.65,2.4-.45,3.62-.58.59-.06,1.19-.02,1.72-.38.12-.08.28-.11.42-.13,1.32-.22,2.64-.4,3.94-.67.86-.18,1.75-.39,2.54-.76.93-.44,2-.63,2.72-1.46,1.5-.75,2.96-1.61,4.75-1.44,1.16.11,2.45,1.1,2.98,2.16.71,1.44,1.06,2.99,1.59,4.48.1.28.15.58.16.88.05,1.3.12,2.6.09,3.89-.04,1.69-1,2.79-2.64,3.07-.93.16-1.86.27-2.8.36-.94.1-1.87.19-2.81.22-1.46.04-2.79.47-4.1,1.09-1.02.48-2.09.91-3.17,1.24-1.04.32-2.02.77-2.96,1.31-.91.52-1.91.78-2.88,1.1-1.54.51-3.14.85-4.73,1.24-.38.09-.78.12-1.18.14-.89.05-1.76.19-2.63.41-.8.21-1.67.21-2.51.22-3.12.02-6.24,0-9.37,0-.75,0-1.48,0-2.19.32-.31.14-.67.17-1.01.21-.54.06-1.07.14-1.57.41-.46.25-1.09.1-1.47.62-.11.15-.45.16-.69.18-.39.03-.8,0-1.18.05-.15.02-.38.25-.37.36.01.15.2.35.36.41.27.1.58.11.87.14.59.07,1.18.11,1.68.5.15.12.35.19.54.24,1.63.38,3.25.79,4.96.74,2.87-.08,5.75-.06,8.62-.06,1.04,0,2.08-.05,3.07.41.3.14.68.12,1.02.14.79.05,1.58.03,2.32.43.21.11.48.11.73.13.82.09,1.62.12,2.42.53.86.43,1.89.52,2.83.77.43.12.86.25,1.26.44,1.55.75,3.18,1.32,4.75,2.02,1.75.79,3.63,1.2,5.34,2.05.29.15.67.15,1.02.16,1.09.04,2.18.11,3.27.06,1.28-.07,2.44.4,3.59.79.9.31,1.59,1.02,1.58,2.13-.02,1.55-.03,3.1-.08,4.64-.01.34-.16.67-.26,1-.07.24-.21.46-.24.7-.11,1.1-.7,2.02-1.08,3.02-.49,1.31-1.47,1.94-2.57,2.5-.29.15-.68.22-1,.17-1.58-.24-3.12-.75-4.39-1.71-1.1-.83-2.33-1.29-3.57-1.72-1.16-.4-2.35-.78-3.61-.68-.05,0-.1,0-.15-.02-1.6-.56-3.32-.5-4.95-.89-.38-.09-.78-.16-1.17-.18-.9-.04-1.74-.22-2.6-.52-.82-.29-1.7-.48-2.56-.68-.68-.16-1.31-.39-1.94-.67-1.17-.52-2.42-.84-3.5-1.57-.12-.08-.27-.18-.4-.17-.97.04-1.61-.65-2.4-1.02-1.63-.76-2.95-1.98-4.53-2.81-.94-.5-1.85-1.13-2.76-1.71-1.57-1.01-3.3-1.57-5.05-2.05-.97-.27-2-.28-2.92-.83-.35-.21-.86-.13-1.31-.19Z"/>
  <rect class="st1" x="64.54" y="571.69" width="63.07" height="63.53"/>
  <rect class="st1" x="64.49" y="444.58" width="63.07" height="63.53"/>
</svg>