<?xml version="1.0" encoding="UTF-8"?>
<svg id="Capa_2" data-name="Capa 2" xmlns="http://www.w3.org/2000/svg" viewBox="0 0 127.56 1275.59">
  <defs>
    <style>
      .cls-1 {
        fill: #f40009;
      }

      .cls-2 {
        fill: #fff;
      }
    </style>
  </defs>
  <g id="Graphics">
    <g>
      <path class="cls-1" d="M63.78,191.34v-63.78s63.78,0,63.78,0v63.78s-63.78,0-63.78,0ZM127.56,574.02v-63.78s-63.78,0-63.78,0v63.78s63.78,0,63.78,0ZM127.56,1084.25v-63.78s-63.78,0-63.78,0v63.78s63.78,0,63.78,0ZM127.56,446.46v-63.78s-63.78,0-63.78,0v63.78s63.78,0,63.78,0ZM127.56,829.13v-63.78s-63.78,0-63.78,0v63.78s63.78,0,63.78,0ZM0,1020.47h63.78s0-63.78,0-63.78H0s0,63.78,0,63.78ZM0,892.91h63.78s0-63.78,0-63.78H0s0,63.78,0,63.78ZM127.56,1211.81v-63.78s-63.78,0-63.78,0v63.78s63.78,0,63.78,0ZM0,1148.03h63.78s0-63.78,0-63.78H0s0,63.78,0,63.78ZM127.56,63.78V0s-63.78,0-63.78,0v63.78s63.78,0,63.78,0ZM0,765.35h63.78s0-63.78,0-63.78H0s0,63.78,0,63.78ZM0,382.68h63.78s0-63.78,0-63.78H0s0,63.78,0,63.78ZM0,510.24h63.78s0-63.78,0-63.78H0s0,63.78,0,63.78ZM0,127.56h63.78s0-63.78,0-63.78H0s0,63.78,0,63.78ZM63.78,637.8v63.78s63.78,0,63.78,0v-63.78s-63.78,0-63.78,0v-63.78s0-255.12,0-255.12v-63.78s-63.78,0-63.78,0v-63.78s63.78,0,63.78,0v63.78M0,1275.59h63.78s0-63.78,0-63.78H0s0,63.78,0,63.78ZM0,637.8h63.78s0-63.78,0-63.78H0s0,63.78,0,63.78ZM63.78,956.69h63.78s0-63.78,0-63.78h-63.78s0,63.78,0,63.78ZM63.78,318.9h63.78s0-63.78,0-63.78h-63.78s0,63.78,0,63.78Z"/>
      <path class="cls-2" d="M54.47,1222.82c1.66,2.33,3.06,7.63,2.37,9.86-.33,1.07-1.2,1.64-2.27,1.96-2.27.67-3.36.23-5.03.44-2.23.28-2.88.63-6.28,1.95-3.34,1.29-2.62,1.16-5.73,2.46-.2.08-.4.15-.62.06-.07-.03-.48.19-.84.31-.97.3-1.94.59-2.94.78-1.05.2-3.34.8-4.38.56-.08.19-.25.25-.42.3-2.01.56-7.7-.14-11.65.2-.3.03-.6.02-.89.07-1.15.22-2.29.48-3.41.82-.12.04-.21.09-.27.2-.09.18-.25.3-.45.34-.12.03-.25.06-.38.05-1.22-.07-1.53-.25-1.78.2-.06.11-.15.2-.27.25-.09.03-.17.06-.25.07.08.01.16.04.25.07.12.05.2.13.27.25.25.45.56.26,1.78.2.13,0,.26.03.38.05.2.05.35.16.45.34.06.11.15.16.27.2,1.12.34,2.26.6,3.41.82.29.06.59.05.89.07,3.95.34,9.64-.36,11.65.2.17.05.35.11.42.3,1.04-.25,3.33.36,4.38.56,1,.19,1.97.48,2.94.78.36.11.77.34.84.31.22-.09.42-.02.62.06,3.11,1.3,2.39,1.17,5.73,2.46,3.41,1.32,4.05,1.68,6.28,1.95,1.67.21,2.77-.23,5.03.44,1.08.32,1.94.89,2.27,1.96.69,2.23-.7,7.53-2.37,9.86-.77,1.08-1.73,1.5-3.08,1.26-1.58-.29-2.61-.91-3.85-1.71-2.24-1.45-4.85-1.76-6.46-2.05-3.47-.63-2.33-.44-4.03-.66-3.5-.45-3.54-.39-3.77-.69-.06-.08-.51-.09-.97-.21-2.2-.54-5.31-1.65-6.52-2.37-.12-.07-.22-.17-.34-.27-.16.11-.35.08-.53.03-.52-.15-1.03-.35-1.49-.64-8.17-5.19-8.13-5.44-12.69-6.73-.1-.03-.18-.04-.28.01-.31.19-.63.13-.91-.05-.99-.64-1.16-1.03-1.62-.8-.5.24-1.05-.04-1.15-.59-.17-.91.67-3.49,1.01-4.37.22-.55.48-.96.89-1.04-.41-.08-.67-.49-.89-1.04-.34-.88-1.18-3.46-1.01-4.37.1-.55.65-.83,1.15-.59.46.22.63-.16,1.62-.8.28-.18.6-.24.91-.05.09.06.18.04.28.01,4.56-1.29,4.52-1.55,12.69-6.73.46-.29.97-.49,1.49-.64.18-.05.37-.08.53.03.12-.1.22-.2.34-.27,1.2-.72,4.32-1.83,6.52-2.37.47-.11.91-.13.97-.21.22-.3.27-.23,3.77-.69,1.7-.22.56-.03,4.03-.66,1.61-.29,4.23-.6,6.46-2.05,1.23-.8,2.26-1.42,3.85-1.71,1.34-.24,2.3.17,3.08,1.26ZM51.39,583.77c-1.58.29-2.61.91-3.85,1.71-2.24,1.45-4.85,1.76-6.46,2.05-3.47.63-2.33.44-4.03.66-3.5.45-3.54.39-3.77.69-.06.08-.51.09-.97.21-2.2.54-5.31,1.65-6.52,2.37-.12.07-.22.17-.34.27-.16-.11-.35-.08-.53-.03-.52.15-1.03.35-1.49.64-8.17,5.19-8.13,5.44-12.69,6.73-.1.03-.18.04-.28-.01-.31-.19-.63-.13-.91.05-.99.64-1.16,1.03-1.62.8-.5-.24-1.05.04-1.15.59-.17.91.67,3.49,1.01,4.37.22.55.48.96.89,1.04-.41.08-.67.49-.89,1.04-.34.88-1.18,3.46-1.01,4.37.1.55.65.83,1.15.59.46-.22.63.16,1.62.8.28.18.6.24.91.05.09-.06.18-.04.28-.01,4.56,1.29,4.52,1.55,12.69,6.73.46.29.97.49,1.49.64.18.05.37.08.53-.03.12.1.22.2.34.27,1.2.72,4.32,1.83,6.52,2.37.47.11.91.13.97.21.22.3.27.23,3.77.69,1.7.22.56.03,4.03.66,1.61.29,4.23.6,6.46,2.05,1.23.8,2.26,1.42,3.85,1.71,1.34.24,2.3-.17,3.08-1.26,1.66-2.33,3.06-7.63,2.37-9.86-.33-1.07-1.2-1.64-2.27-1.96-2.27-.67-3.36-.23-5.03-.44-2.23-.28-2.88-.63-6.28-1.95-3.34-1.29-2.62-1.16-5.73-2.46-.2-.08-.4-.15-.62-.06-.07.03-.48-.19-.84-.31-.97-.3-1.94-.59-2.94-.78-1.05-.2-3.34-.8-4.38-.56-.08-.19-.25-.25-.42-.3-2.01-.56-7.7.14-11.65-.2-.3-.03-.6-.02-.89-.07-1.15-.22-2.29-.48-3.41-.82-.12-.04-.21-.09-.27-.2-.09-.18-.25-.3-.45-.34-.12-.03-.25-.06-.38-.05-1.22.07-1.53.25-1.78-.2-.06-.11-.15-.2-.27-.25-.09-.03-.17-.06-.25-.07.08-.01.16-.04.25-.07.12-.05.2-.13.27-.25.25-.45.56-.26,1.78-.2.13,0,.26-.03.38-.05.2-.05.35-.16.45-.34.06-.11.15-.16.27-.2,1.12-.34,2.26-.6,3.41-.82.29-.06.59-.05.89-.07,3.95-.34,9.64.36,11.65-.2.17-.05.35-.11.42-.3,1.04.25,3.33-.36,4.38-.56,1-.19,1.97-.48,2.94-.78.36-.11.77-.34.84-.31.22.09.42.02.62-.06,3.11-1.3,2.39-1.17,5.73-2.46,3.41-1.32,4.05-1.68,6.28-1.95,1.67-.21,2.77.23,5.03-.44,1.08-.32,1.94-.89,2.27-1.96.69-2.23-.7-7.53-2.37-9.86-.77-1.08-1.73-1.5-3.08-1.26ZM115.17,902.67c-1.58.29-2.61.91-3.85,1.71-2.24,1.45-4.85,1.76-6.46,2.05-3.47.63-2.33.44-4.03.66-3.5.45-3.54.39-3.77.69-.06.08-.51.09-.97.21-2.2.54-5.31,1.65-6.52,2.37-.12.07-.22.17-.34.27-.16-.11-.35-.08-.53-.03-.52.15-1.03.35-1.49.64-8.17,5.19-8.13,5.44-12.69,6.73-.1.03-.18.04-.28-.01-.31-.19-.63-.13-.91.05-.99.64-1.16,1.03-1.62.8-.5-.24-1.05.04-1.15.59-.17.91.67,3.49,1.01,4.37.22.55.48.96.89,1.04-.41.08-.67.49-.89,1.04-.34.88-1.18,3.46-1.01,4.37.1.55.65.83,1.15.59.46-.22.63.16,1.62.8.28.18.6.24.91.05.09-.06.18-.04.28-.01,4.56,1.29,4.52,1.55,12.69,6.73.46.29.97.49,1.49.64.18.05.37.08.53-.03.12.1.22.2.34.27,1.2.72,4.32,1.83,6.52,2.37.47.11.91.13.97.21.22.3.27.23,3.77.69,1.7.22.56.03,4.03.66,1.61.29,4.23.6,6.46,2.05,1.23.8,2.26,1.42,3.85,1.71,1.34.24,2.3-.17,3.08-1.26,1.66-2.33,3.06-7.63,2.37-9.86-.33-1.07-1.2-1.64-2.27-1.96-2.27-.67-3.36-.23-5.03-.44-2.23-.28-2.88-.63-6.28-1.95-3.34-1.29-2.62-1.16-5.73-2.46-.2-.08-.4-.15-.62-.06-.07.03-.48-.19-.84-.31-.97-.3-1.94-.59-2.94-.78-1.05-.2-3.34-.8-4.38-.56-.08-.19-.25-.25-.42-.3-2.01-.56-7.7.14-11.65-.2-.3-.03-.6-.02-.89-.07-1.15-.22-2.29-.48-3.41-.82-.12-.04-.21-.09-.27-.2-.09-.18-.25-.3-.45-.34-.12-.03-.25-.06-.38-.05-1.22.07-1.53.25-1.78-.2-.06-.11-.15-.2-.27-.25-.09-.03-.17-.06-.25-.07.08-.01.16-.04.25-.07.12-.05.2-.13.27-.25.25-.45.56-.26,1.78-.2.13,0,.26-.03.38-.05.2-.05.35-.16.45-.34.06-.11.15-.16.27-.2,1.12-.34,2.26-.6,3.41-.82.29-.06.59-.05.89-.07,3.95-.34,9.64.36,11.65-.2.17-.05.35-.11.42-.3,1.04.25,3.33-.36,4.38-.56,1-.19,1.97-.48,2.94-.78.36-.11.77-.34.84-.31.22.09.42.02.62-.06,3.11-1.3,2.39-1.17,5.73-2.46,3.41-1.32,4.05-1.68,6.28-1.95,1.67-.21,2.77.23,5.03-.44,1.08-.32,1.94-.89,2.27-1.96.69-2.23-.7-7.53-2.37-9.86-.77-1.08-1.73-1.5-3.08-1.26ZM115.17,264.87c-1.58.29-2.61.91-3.85,1.71-2.24,1.45-4.85,1.76-6.46,2.05-3.47.63-2.33.44-4.03.66-3.5.45-3.54.39-3.77.69-.06.08-.51.09-.97.21-2.2.54-5.31,1.65-6.52,2.37-.12.07-.22.17-.34.27-.16-.11-.35-.08-.53-.03-.52.15-1.03.35-1.49.64-8.17,5.19-8.13,5.44-12.69,6.73-.1.03-.18.04-.28-.01-.31-.19-.63-.13-.91.05-.99.64-1.16,1.03-1.62.8-.5-.24-1.05.04-1.15.59-.17.91.67,3.49,1.01,4.37.22.55.48.96.89,1.04-.41.08-.67.49-.89,1.04-.34.88-1.18,3.46-1.01,4.37.1.55.65.83,1.15.59.46-.22.63.16,1.62.8.28.18.6.24.91.05.09-.06.18-.04.28-.01,4.56,1.29,4.52,1.55,12.69,6.73.46.29.97.49,1.49.64.18.05.37.08.53-.03.12.1.22.2.34.27,1.2.72,4.32,1.83,6.52,2.37.47.11.91.13.97.21.22.3.27.23,3.77.69,1.7.22.56.03,4.03.66,1.61.29,4.23.6,6.46,2.05,1.23.8,2.26,1.42,3.85,1.71,1.34.24,2.3-.17,3.08-1.26,1.66-2.33,3.06-7.63,2.37-9.86-.33-1.07-1.2-1.64-2.27-1.96-2.27-.67-3.36-.23-5.03-.44-2.23-.28-2.88-.63-6.28-1.95-3.34-1.29-2.62-1.16-5.73-2.46-.2-.08-.4-.15-.62-.06-.07.03-.48-.19-.84-.31-.97-.3-1.94-.59-2.94-.78-1.05-.2-3.34-.8-4.38-.56-.08-.19-.25-.25-.42-.3-2.01-.56-7.7.14-11.65-.2-.3-.03-.6-.02-.89-.07-1.15-.22-2.29-.48-3.41-.82-.12-.04-.21-.09-.27-.2-.09-.18-.25-.3-.45-.34-.12-.03-.25-.06-.38-.05-1.22.07-1.53.25-1.78-.2-.06-.11-.15-.2-.27-.25-.09-.03-.17-.06-.25-.07.08-.01.16-.04.25-.07.12-.05.2-.13.27-.25.25-.45.56-.26,1.78-.2.13,0,.26-.03.38-.05.2-.05.35-.16.45-.34.06-.11.15-.16.27-.2,1.12-.34,2.26-.6,3.41-.82.29-.06.59-.05.89-.07,3.95-.34,9.64.36,11.65-.2.17-.05.35-.11.42-.3,1.04.25,3.33-.36,4.38-.56,1-.19,1.97-.48,2.94-.78.36-.11.77-.34.84-.31.22.09.42.02.62-.06,3.11-1.3,2.39-1.17,5.73-2.46,3.41-1.32,4.05-1.68,6.28-1.95,1.67-.21,2.77.23,5.03-.44,1.08-.32,1.94-.89,2.27-1.96.69-2.23-.7-7.53-2.37-9.86-.77-1.08-1.73-1.5-3.08-1.26Z"/>
    </g>
  </g>
</svg>